<mxfile host="Electron" agent="Mozilla/5.0 (Windows NT 10.0; Win64; x64) AppleWebKit/537.36 (KHTML, like Gecko) draw.io/27.0.9 Chrome/134.0.6998.205 Electron/35.4.0 Safari/537.36" version="27.0.9">
  <diagram name="Page-1" id="Ch7WBxR0OH8SPZ26DBo3">
    <mxGraphModel dx="1967" dy="1240" grid="1" gridSize="10" guides="1" tooltips="1" connect="1" arrows="1" fold="1" page="1" pageScale="1" pageWidth="1169" pageHeight="827" math="0" shadow="0">
      <root>
        <mxCell id="0" />
        <mxCell id="1" parent="0" />
        <mxCell id="mlve-q3boU8CmhF-OKfO-1" value="" style="edgeStyle=orthogonalEdgeStyle;rounded=0;orthogonalLoop=1;jettySize=auto;html=1;" parent="1" source="mlve-q3boU8CmhF-OKfO-2" target="mlve-q3boU8CmhF-OKfO-5" edge="1">
          <mxGeometry relative="1" as="geometry" />
        </mxCell>
        <mxCell id="mlve-q3boU8CmhF-OKfO-2" value="start" style="ellipse;whiteSpace=wrap;html=1;fillColor=#33FF33;" parent="1" vertex="1">
          <mxGeometry x="240" y="-70" width="120" height="80" as="geometry" />
        </mxCell>
        <mxCell id="mlve-q3boU8CmhF-OKfO-3" value="End" style="ellipse;whiteSpace=wrap;html=1;fillColor=#FF0000;" parent="1" vertex="1">
          <mxGeometry x="240" y="550" width="120" height="80" as="geometry" />
        </mxCell>
        <mxCell id="mlve-q3boU8CmhF-OKfO-22" value="" style="edgeStyle=orthogonalEdgeStyle;rounded=0;orthogonalLoop=1;jettySize=auto;html=1;" parent="1" source="mlve-q3boU8CmhF-OKfO-5" target="mlve-q3boU8CmhF-OKfO-19" edge="1">
          <mxGeometry relative="1" as="geometry" />
        </mxCell>
        <mxCell id="mlve-q3boU8CmhF-OKfO-5" value="&lt;span style=&quot;background-color: transparent; color: light-dark(rgb(0, 0, 0), rgb(255, 255, 255));&quot;&gt;Read: age&amp;nbsp;&lt;/span&gt;&lt;br&gt;&lt;div&gt;Read: Driver license&lt;/div&gt;&lt;div&gt;Read:&lt;b style=&quot;background-color: transparent; color: light-dark(rgb(0, 0, 0), rgb(255, 255, 255));&quot;&gt;&amp;nbsp;certificate&lt;/b&gt;&lt;span style=&quot;background-color: transparent; color: light-dark(rgb(0, 0, 0), rgb(255, 255, 255));&quot;&gt;,&lt;/span&gt;&lt;span style=&quot;background-color: transparent; color: light-dark(rgb(0, 0, 0), rgb(255, 255, 255));&quot;&gt;&amp;nbsp;&lt;/span&gt;&lt;/div&gt;" style="shape=parallelogram;perimeter=parallelogramPerimeter;whiteSpace=wrap;html=1;fixedSize=1;strokeColor=default;fillColor=#B266FF;align=center;" parent="1" vertex="1">
          <mxGeometry x="220" y="73" width="160" height="60" as="geometry" />
        </mxCell>
        <mxCell id="mlve-q3boU8CmhF-OKfO-6" style="edgeStyle=orthogonalEdgeStyle;rounded=0;orthogonalLoop=1;jettySize=auto;html=1;entryX=1;entryY=0.5;entryDx=0;entryDy=0;" parent="1" source="mlve-q3boU8CmhF-OKfO-8" target="mlve-q3boU8CmhF-OKfO-14" edge="1">
          <mxGeometry relative="1" as="geometry" />
        </mxCell>
        <mxCell id="mlve-q3boU8CmhF-OKfO-7" style="edgeStyle=orthogonalEdgeStyle;rounded=0;orthogonalLoop=1;jettySize=auto;html=1;entryX=0;entryY=0.5;entryDx=0;entryDy=0;" parent="1" source="mlve-q3boU8CmhF-OKfO-8" target="mlve-q3boU8CmhF-OKfO-10" edge="1">
          <mxGeometry relative="1" as="geometry" />
        </mxCell>
        <mxCell id="mlve-q3boU8CmhF-OKfO-8" value="result = True" style="rhombus;whiteSpace=wrap;html=1;strokeColor=#FF3399;fillColor=#FF0080;" parent="1" vertex="1">
          <mxGeometry x="260" y="350" width="80" height="80" as="geometry" />
        </mxCell>
        <mxCell id="mlve-q3boU8CmhF-OKfO-9" style="edgeStyle=orthogonalEdgeStyle;rounded=0;orthogonalLoop=1;jettySize=auto;html=1;exitX=0.5;exitY=1;exitDx=0;exitDy=0;" parent="1" source="mlve-q3boU8CmhF-OKfO-10" target="mlve-q3boU8CmhF-OKfO-3" edge="1">
          <mxGeometry relative="1" as="geometry">
            <Array as="points">
              <mxPoint x="530" y="590" />
            </Array>
          </mxGeometry>
        </mxCell>
        <mxCell id="mlve-q3boU8CmhF-OKfO-10" value="Print: &quot;Rejected&quot;" style="shape=parallelogram;perimeter=parallelogramPerimeter;whiteSpace=wrap;html=1;fixedSize=1;fillColor=#3333FF;" parent="1" vertex="1">
          <mxGeometry x="470" y="360" width="120" height="60" as="geometry" />
        </mxCell>
        <mxCell id="mlve-q3boU8CmhF-OKfO-11" value="" style="edgeStyle=orthogonalEdgeStyle;rounded=0;orthogonalLoop=1;jettySize=auto;html=1;" parent="1" source="mlve-q3boU8CmhF-OKfO-12" target="mlve-q3boU8CmhF-OKfO-8" edge="1">
          <mxGeometry relative="1" as="geometry" />
        </mxCell>
        <mxCell id="mlve-q3boU8CmhF-OKfO-12" value="&lt;br&gt;&lt;div style=&quot;text-align: left; text-wrap-mode: nowrap;&quot;&gt;&lt;span style=&quot;background-color: transparent; color: rgb(255, 255, 255);&quot;&gt;&amp;nbsp;&lt;/span&gt;&lt;/div&gt;&lt;div style=&quot;text-align: left; text-wrap-mode: nowrap;&quot;&gt;&lt;span style=&quot;background-color: transparent;&quot;&gt;&amp;nbsp;result = ( age &amp;gt; 21&amp;nbsp;&lt;/span&gt;&lt;/div&gt;&lt;div style=&quot;text-align: left; text-wrap-mode: nowrap;&quot;&gt;&lt;span style=&quot;background-color: transparent;&quot;&gt;and&amp;nbsp;&lt;/span&gt;&lt;/div&gt;&lt;div style=&quot;text-align: left; text-wrap-mode: nowrap;&quot;&gt;&lt;span style=&quot;background-color: transparent;&quot;&gt;has a driver License&amp;nbsp;&lt;/span&gt;&lt;/div&gt;&lt;div style=&quot;text-align: left; text-wrap-mode: nowrap;&quot;&gt;&lt;span style=&quot;background-color: transparent;&quot;&gt;= True)&lt;/span&gt;&lt;/div&gt;&lt;div style=&quot;text-align: left; text-wrap-mode: nowrap;&quot;&gt;&lt;br&gt;&lt;/div&gt;&lt;div style=&quot;text-align: left; text-wrap-mode: nowrap;&quot;&gt;&lt;font style=&quot;color: rgb(255, 0, 0);&quot;&gt;&lt;br&gt;&lt;/font&gt;&lt;/div&gt;&lt;div style=&quot;text-align: left; text-wrap-mode: nowrap;&quot;&gt;&lt;br&gt;&lt;/div&gt;&lt;div style=&quot;text-align: left; text-wrap-mode: nowrap;&quot;&gt;&amp;nbsp;&lt;/div&gt;" style="rounded=0;whiteSpace=wrap;html=1;fillColor=#FF8000;" parent="1" vertex="1">
          <mxGeometry x="225" y="210" width="150" height="90" as="geometry" />
        </mxCell>
        <mxCell id="mlve-q3boU8CmhF-OKfO-13" style="edgeStyle=orthogonalEdgeStyle;rounded=0;orthogonalLoop=1;jettySize=auto;html=1;entryX=0;entryY=0.5;entryDx=0;entryDy=0;" parent="1" source="mlve-q3boU8CmhF-OKfO-14" target="mlve-q3boU8CmhF-OKfO-3" edge="1">
          <mxGeometry relative="1" as="geometry">
            <Array as="points">
              <mxPoint x="70" y="590" />
            </Array>
          </mxGeometry>
        </mxCell>
        <mxCell id="mlve-q3boU8CmhF-OKfO-14" value="Print: &quot;Hired&quot;" style="shape=parallelogram;perimeter=parallelogramPerimeter;whiteSpace=wrap;html=1;fixedSize=1;fillColor=#3333FF;" parent="1" vertex="1">
          <mxGeometry x="10" y="360" width="120" height="60" as="geometry" />
        </mxCell>
        <mxCell id="mlve-q3boU8CmhF-OKfO-16" value="&lt;font style=&quot;font-size: 16px;&quot;&gt;&lt;br&gt;&lt;/font&gt;&lt;div style=&quot;text-align: left;&quot;&gt;&lt;font style=&quot;font-size: 16px;&quot;&gt;#5&lt;/font&gt;&lt;/div&gt;&lt;div style=&quot;text-align: left;&quot;&gt;&lt;font style=&quot;font-size: 16px;&quot;&gt;&lt;br&gt;&lt;/font&gt;&lt;/div&gt;&lt;div style=&quot;text-align: left;&quot;&gt;&lt;div&gt;&lt;font style=&quot;font-size: 16px;&quot;&gt;&amp;nbsp;This flowchart for a program determines if a job&amp;nbsp;&lt;/font&gt;&lt;/div&gt;&lt;div&gt;&lt;font style=&quot;font-size: 16px;&quot;&gt;applicant is hired or rejected.&lt;span style=&quot;background-color: transparent; color: light-dark(rgb(0, 0, 0), rgb(255, 255, 255));&quot;&gt;&amp;nbsp;It checks for two&amp;nbsp;&lt;/span&gt;&lt;/font&gt;&lt;/div&gt;&lt;div&gt;&lt;span style=&quot;background-color: transparent; color: light-dark(rgb(0, 0, 0), rgb(255, 255, 255));&quot;&gt;&lt;font style=&quot;font-size: 16px;&quot;&gt;main criteria: having a certificate, or a combination&amp;nbsp;&lt;/font&gt;&lt;/span&gt;&lt;/div&gt;&lt;div&gt;&lt;font style=&quot;font-size: 16px;&quot;&gt;&lt;span style=&quot;background-color: transparent; color: light-dark(rgb(0, 0, 0), rgb(255, 255, 255));&quot;&gt;of&lt;/span&gt;&lt;span style=&quot;background-color: transparent; color: light-dark(rgb(0, 0, 0), rgb(255, 255, 255));&quot;&gt;&amp;nbsp;being over 21 and possessing a driving license.&lt;/span&gt;&lt;/font&gt;&lt;/div&gt;&lt;div&gt;&lt;font style=&quot;font-size: 16px;&quot;&gt;&lt;br&gt;&lt;/font&gt;&lt;/div&gt;&lt;/div&gt;&lt;div style=&quot;text-align: left;&quot;&gt;&lt;font style=&quot;font-size: 16px;&quot;&gt;&lt;br&gt;&lt;/font&gt;&lt;/div&gt;&lt;div style=&quot;text-align: left;&quot;&gt;&lt;font style=&quot;font-size: 16px;&quot;&gt;&amp;nbsp;&lt;/font&gt;&lt;/div&gt;" style="text;html=1;align=center;verticalAlign=middle;resizable=0;points=[];autosize=1;strokeColor=none;fillColor=none;" parent="1" vertex="1">
          <mxGeometry x="-380" y="-130" width="380" height="210" as="geometry" />
        </mxCell>
        <mxCell id="mlve-q3boU8CmhF-OKfO-23" style="edgeStyle=orthogonalEdgeStyle;rounded=0;orthogonalLoop=1;jettySize=auto;html=1;exitX=0;exitY=0.5;exitDx=0;exitDy=0;entryX=0;entryY=0.5;entryDx=0;entryDy=0;" parent="1" source="mlve-q3boU8CmhF-OKfO-19" target="mlve-q3boU8CmhF-OKfO-14" edge="1">
          <mxGeometry relative="1" as="geometry">
            <mxPoint x="40" y="220" as="sourcePoint" />
            <Array as="points">
              <mxPoint x="-10" y="103" />
              <mxPoint x="-10" y="390" />
            </Array>
          </mxGeometry>
        </mxCell>
        <mxCell id="mlve-q3boU8CmhF-OKfO-25" style="edgeStyle=orthogonalEdgeStyle;rounded=0;orthogonalLoop=1;jettySize=auto;html=1;entryX=0;entryY=0.75;entryDx=0;entryDy=0;" parent="1" source="mlve-q3boU8CmhF-OKfO-19" target="mlve-q3boU8CmhF-OKfO-12" edge="1">
          <mxGeometry relative="1" as="geometry">
            <Array as="points">
              <mxPoint x="70" y="278" />
            </Array>
          </mxGeometry>
        </mxCell>
        <mxCell id="mlve-q3boU8CmhF-OKfO-26" value="No" style="edgeLabel;html=1;align=center;verticalAlign=middle;resizable=0;points=[];" parent="mlve-q3boU8CmhF-OKfO-25" vertex="1" connectable="0">
          <mxGeometry x="-0.499" y="13" relative="1" as="geometry">
            <mxPoint y="-1" as="offset" />
          </mxGeometry>
        </mxCell>
        <mxCell id="mlve-q3boU8CmhF-OKfO-19" value="Has&amp;nbsp;&lt;div&gt;&lt;b&gt;a certificate&lt;/b&gt;&lt;div&gt;&lt;span style=&quot;background-color: transparent; color: light-dark(rgb(0, 0, 0), rgb(255, 255, 255));&quot;&gt;&amp;nbsp;True&lt;/span&gt;&lt;/div&gt;&lt;/div&gt;" style="rhombus;whiteSpace=wrap;html=1;fillColor=#FF8000;" parent="1" vertex="1">
          <mxGeometry x="10" y="63" width="120" height="80" as="geometry" />
        </mxCell>
        <mxCell id="mlve-q3boU8CmhF-OKfO-20" value="No" style="text;html=1;align=center;verticalAlign=middle;resizable=0;points=[];autosize=1;strokeColor=none;fillColor=none;" parent="1" vertex="1">
          <mxGeometry x="380" y="348" width="40" height="30" as="geometry" />
        </mxCell>
        <mxCell id="mlve-q3boU8CmhF-OKfO-21" value="Yas" style="text;html=1;align=center;verticalAlign=middle;resizable=0;points=[];autosize=1;strokeColor=none;fillColor=none;" parent="1" vertex="1">
          <mxGeometry x="170" y="348" width="40" height="30" as="geometry" />
        </mxCell>
        <mxCell id="mlve-q3boU8CmhF-OKfO-24" value="Yas" style="text;html=1;align=center;verticalAlign=middle;resizable=0;points=[];autosize=1;strokeColor=none;fillColor=none;" parent="1" vertex="1">
          <mxGeometry x="-20" y="218" width="40" height="30" as="geometry" />
        </mxCell>
      </root>
    </mxGraphModel>
  </diagram>
</mxfile>
